<svg width="32" height="37" viewBox="0 0 32 37" fill="none" xmlns="http://www.w3.org/2000/svg">
<path d="M17.3224 24.7487L29.5717 23.7595C30.4865 23.6856 31.2072 22.9436 31.2577 22.0237L31.9972 8.53648C32.0365 7.82046 31.6576 7.14783 31.0266 6.81342L18.5707 0.212196C18.0184 -0.0805136 17.3548 -0.0697929 16.8108 0.24063L3.7436 7.69642C3.51692 7.82575 3.62178 8.17347 3.88156 8.15391L16.6172 7.19519C16.9799 7.16789 17.285 7.46292 17.2714 7.82777L16.6649 24.1164C16.6512 24.4825 16.9585 24.7781 17.3224 24.7487Z" fill="#717171"/>
<path d="M14.6892 11.8178L2.44964 12.8274C1.53758 12.9027 0.819205 13.6421 0.767045 14.5592L0.00299212 27.9942C-0.0378768 28.7128 0.342657 29.3883 0.976719 29.7227L13.3978 36.273C13.9495 36.5639 14.6115 36.5526 15.1544 36.2428L28.2198 28.788C28.4467 28.6585 28.3414 28.3105 28.0815 28.3305L15.3663 29.31C15.0028 29.338 14.6967 29.042 14.7111 28.6762L15.3477 12.4512C15.3621 12.0842 15.0539 11.7877 14.6892 11.8178Z" fill="#009C75"/>
<path d="M2.46689 14.2874C2.6048 11.1846 5.2319 8.55749 8.33469 8.41959C8.60064 8.40777 8.80666 8.61379 8.79484 8.87974L7.9445 28.0122C7.9385 28.1472 7.82421 28.2615 7.68923 28.2675L2.0784 28.5168C1.94342 28.5228 1.83885 28.4183 1.84485 28.2833L2.46689 14.2874Z" fill="#717171"/>
<path d="M9.67162 11.2979C9.74755 9.58949 11.1941 8.14297 12.9025 8.06704C14.611 7.99111 15.9344 9.31453 15.8585 11.023L15.2419 24.8953C15.166 26.6037 13.7195 28.0502 12.011 28.1262C10.3026 28.2021 8.97914 26.8787 9.05507 25.1702L9.67162 11.2979Z" fill="#717171"/>
<path d="M22.374 13.5765C22.5119 10.4738 20.1084 8.07025 17.0056 8.20815C16.7397 8.21997 16.5145 8.44515 16.5027 8.7111L15.6523 27.8435C15.6463 27.9785 15.7509 28.0831 15.8859 28.0771L21.4967 27.8277C21.6317 27.8217 21.746 27.7074 21.752 27.5725L22.374 13.5765Z" fill="#009C75"/>
<path d="M29.8163 12.88C29.9519 9.8292 27.5887 7.46595 24.5379 7.60154C24.1718 7.61782 23.8618 7.92779 23.8455 8.29388L23.447 17.2609C23.441 17.3959 23.5455 17.5004 23.6805 17.4944L27.1789 17.3389C28.5287 17.2789 29.6716 16.136 29.7316 14.7862L29.8163 12.88Z" fill="#009C75"/>
<path d="M29.3136 24.0804C29.4457 21.108 27.1432 18.8054 24.1708 18.9375C23.7745 18.9552 23.4389 19.2907 23.4213 19.687L23.0692 27.6091C23.0632 27.744 23.1678 27.8486 23.3028 27.8426L28.9136 27.5932C29.0486 27.5872 29.1629 27.4729 29.1689 27.338L29.3136 24.0804Z" fill="#009C75"/>
</svg>
