<svg width="29" height="24" viewBox="0 0 29 24" fill="none" xmlns="http://www.w3.org/2000/svg">
<path d="M0.622287 8.87521C0.760189 5.77242 3.38729 3.14533 6.49008 3.00742C6.75603 2.9956 6.96205 3.20162 6.95023 3.46757L6.0999 22.6C6.0939 22.735 5.97961 22.8493 5.84462 22.8553L0.233794 23.1047C0.0988096 23.1107 -0.00575355 23.0061 0.000245776 22.8711L0.622287 8.87521Z" fill="#717171"/>
<path d="M7.67474 3.23402C7.75067 1.52557 9.1972 0.0790419 10.9057 0.00311068C12.6141 -0.0728205 13.9375 1.2506 13.8616 2.95905L13.2451 16.8313C13.1691 18.5398 11.7226 19.9863 10.0141 20.0622C8.30569 20.1382 6.98226 18.8147 7.0582 17.1063L7.67474 3.23402Z" fill="#717171"/>
<path d="M21.2855 8.09947C21.4234 4.99668 19.0199 2.59316 15.9171 2.73107C15.6512 2.74289 15.426 2.96807 15.4142 3.23402L14.5638 22.3665C14.5578 22.5014 14.6624 22.606 14.7974 22.6L20.4082 22.3506C20.5432 22.3446 20.6575 22.2304 20.6635 22.0954L21.2855 8.09947Z" fill="#0EC185"/>
<path d="M28.352 7.54518C28.4875 4.49437 26.1243 2.13113 23.0735 2.26672C22.7074 2.28299 22.3974 2.59296 22.3811 2.95905L21.9826 11.926C21.9766 12.061 22.0812 12.1656 22.2162 12.1596L25.7145 12.0041C27.0643 11.9441 28.2072 10.8012 28.2672 9.45137L28.352 7.54518Z" fill="#0EC185"/>
<path d="M28.2735 18.1019C28.4056 15.1295 26.1031 12.8269 23.1306 12.959C22.7343 12.9767 22.3988 13.3122 22.3811 13.7085L22.0291 21.6305C22.0231 21.7655 22.1276 21.8701 22.2626 21.8641L27.8734 21.6147C28.0084 21.6087 28.1227 21.4944 28.1287 21.3594L28.2735 18.1019Z" fill="#0EC185"/>
<path d="M0.622287 8.87521C0.760189 5.77242 3.38729 3.14533 6.49008 3.00742C6.75603 2.9956 6.96205 3.20162 6.95023 3.46757L6.0999 22.6C6.0939 22.735 5.97961 22.8493 5.84462 22.8553L0.233794 23.1047C0.0988096 23.1107 -0.00575355 23.0061 0.000245776 22.8711L0.622287 8.87521Z" fill="#717171"/>
<path d="M7.67474 3.23402C7.75067 1.52557 9.1972 0.0790419 10.9057 0.00311068C12.6141 -0.0728205 13.9375 1.2506 13.8616 2.95905L13.2451 16.8313C13.1691 18.5398 11.7226 19.9863 10.0141 20.0622C8.30569 20.1382 6.98226 18.8147 7.0582 17.1063L7.67474 3.23402Z" fill="#717171"/>
<path d="M21.2855 8.09947C21.4234 4.99668 19.0199 2.59316 15.9171 2.73107C15.6512 2.74289 15.426 2.96807 15.4142 3.23402L14.5638 22.3665C14.5578 22.5014 14.6624 22.606 14.7974 22.6L20.4082 22.3506C20.5432 22.3446 20.6575 22.2304 20.6635 22.0954L21.2855 8.09947Z" fill="#0EC185"/>
<path d="M28.352 7.54518C28.4875 4.49437 26.1243 2.13113 23.0735 2.26672C22.7074 2.28299 22.3974 2.59296 22.3811 2.95905L21.9826 11.926C21.9766 12.061 22.0812 12.1656 22.2162 12.1596L25.7145 12.0041C27.0643 11.9441 28.2072 10.8012 28.2672 9.45137L28.352 7.54518Z" fill="#0EC185"/>
<path d="M28.2735 18.1019C28.4056 15.1295 26.1031 12.8269 23.1306 12.959C22.7343 12.9767 22.3988 13.3122 22.3811 13.7085L22.0291 21.6305C22.0231 21.7655 22.1276 21.8701 22.2626 21.8641L27.8734 21.6147C28.0084 21.6087 28.1227 21.4944 28.1287 21.3594L28.2735 18.1019Z" fill="#0EC185"/>
</svg>
