<svg width="28" height="22" viewBox="0 0 28 22" fill="none" xmlns="http://www.w3.org/2000/svg">
<path d="M0.749241 7.7478C0.887142 4.64501 3.51424 2.01792 6.61703 1.88002C6.88299 1.8682 7.089 2.07421 7.07718 2.34017L6.22685 21.4726C6.22085 21.6076 6.10656 21.7219 5.97158 21.7279L0.360748 21.9773C0.225763 21.9833 0.1212 21.8787 0.127199 21.7437L0.749241 7.7478Z" fill="#717171"/>
<path d="M7.58919 4.91548C7.66512 3.20703 9.11165 1.76051 10.8201 1.68458C12.5286 1.60864 13.852 2.93206 13.7761 4.64052L13.1595 18.5128C13.0836 20.2212 11.637 21.6678 9.92859 21.7437C8.22013 21.8196 6.89671 20.4962 6.97264 18.7878L7.58919 4.91548Z" fill="#717171"/>
<path d="M20.5808 6.58557C20.7187 3.48279 18.3152 1.07927 15.2124 1.21717C14.9464 1.22899 14.7212 1.45417 14.7094 1.72013L13.8591 20.8526C13.8531 20.9876 13.9576 21.0921 14.0926 21.0861L19.7035 20.8368C19.8384 20.8308 19.9527 20.7165 19.9587 20.5815L20.5808 6.58557Z" fill="#009C75"/>
<path d="M27.6353 5.54303C27.7709 2.49223 25.4076 0.128978 22.3568 0.26457C21.9907 0.280841 21.6807 0.590811 21.6645 0.956907L21.2659 9.9239C21.2599 10.0589 21.3645 10.1634 21.4995 10.1574L24.9978 10.002C26.3477 9.94197 27.4906 8.79907 27.5505 7.44922L27.6353 5.54303Z" fill="#009C75"/>
<path d="M27.1118 16.5857C27.2439 13.6133 24.9414 11.3108 21.969 11.4429C21.5727 11.4605 21.2371 11.796 21.2195 12.1924L20.8674 20.1144C20.8614 20.2494 20.966 20.3539 21.1009 20.3479L26.7118 20.0986C26.8467 20.0926 26.961 19.9783 26.967 19.8433L27.1118 16.5857Z" fill="#009C75"/>
<path d="M0.749241 7.7478C0.887142 4.64501 3.51424 2.01792 6.61703 1.88002C6.88299 1.8682 7.089 2.07421 7.07718 2.34017L6.22685 21.4726C6.22085 21.6076 6.10656 21.7219 5.97158 21.7279L0.360748 21.9773C0.225763 21.9833 0.1212 21.8787 0.127199 21.7437L0.749241 7.7478Z" fill="#717171"/>
<path d="M7.58919 4.91548C7.66512 3.20703 9.11165 1.76051 10.8201 1.68458C12.5286 1.60864 13.852 2.93206 13.7761 4.64052L13.1595 18.5128C13.0836 20.2212 11.637 21.6678 9.92859 21.7437C8.22013 21.8196 6.89671 20.4962 6.97264 18.7878L7.58919 4.91548Z" fill="#717171"/>
<path d="M20.5808 6.58557C20.7187 3.48279 18.3152 1.07927 15.2124 1.21717C14.9464 1.22899 14.7212 1.45417 14.7094 1.72013L13.8591 20.8526C13.8531 20.9876 13.9576 21.0921 14.0926 21.0861L19.7035 20.8368C19.8384 20.8308 19.9527 20.7165 19.9587 20.5815L20.5808 6.58557Z" fill="#009C75"/>
<path d="M27.6353 5.54303C27.7709 2.49223 25.4076 0.128978 22.3568 0.26457C21.9907 0.280841 21.6807 0.590811 21.6645 0.956907L21.2659 9.9239C21.2599 10.0589 21.3645 10.1634 21.4995 10.1574L24.9978 10.002C26.3477 9.94197 27.4906 8.79907 27.5505 7.44922L27.6353 5.54303Z" fill="#009C75"/>
<path d="M27.1118 16.5857C27.2439 13.6133 24.9414 11.3108 21.969 11.4429C21.5727 11.4605 21.2371 11.796 21.2195 12.1924L20.8674 20.1144C20.8614 20.2494 20.966 20.3539 21.1009 20.3479L26.7118 20.0986C26.8467 20.0926 26.961 19.9783 26.967 19.8433L27.1118 16.5857Z" fill="#009C75"/>
</svg>
